<?xml version="1.0" standalone="no"?>
<!DOCTYPE svg PUBLIC "-//W3C//DTD SVG 20010904//EN"
 "http://www.w3.org/TR/2001/REC-SVG-20010904/DTD/svg10.dtd">
<svg version="1.0" xmlns="http://www.w3.org/2000/svg"
 width="512.000000pt" height="512.000000pt" viewBox="0 0 512.000000 512.000000"
 preserveAspectRatio="xMidYMid meet">
<metadata>
Created by potrace 1.14, written by Peter Selinger 2001-2017
</metadata>
<g transform="translate(0.000000,512.000000) scale(0.100000,-0.100000)"
fill="#000000" stroke="none">
<path d="M618 5095 l-28 -26 0 -1927 c0 -2110 -4 -1959 57 -1979 16 -5 469 -9
1039 -8 l1012 0 16 -70 c9 -38 18 -77 20 -85 2 -8 7 -28 11 -45 4 -16 10 -41
15 -55 4 -14 13 -50 20 -80 7 -30 24 -71 37 -91 24 -37 23 -54 -7 -99 -5 -8
-28 -48 -51 -89 -42 -75 -54 -139 -36 -188 7 -18 5 -23 -8 -23 -31 0 -96 -44
-118 -80 -30 -48 -29 -134 2 -176 31 -42 75 -66 129 -69 53 -4 80 5 118 37 48
41 68 121 44 182 l-10 26 639 0 639 0 -10 -36 c-22 -80 16 -164 88 -196 85
-37 174 -7 214 72 35 68 19 156 -35 198 -14 11 -25 27 -25 36 0 28 -29 74 -51
81 -11 4 -344 7 -740 7 -395 0 -719 3 -719 7 0 4 7 17 17 30 9 13 27 44 40 70
14 25 37 67 51 93 l27 48 595 0 c559 0 598 2 636 19 23 10 50 32 62 48 16 23
133 453 187 693 2 8 11 41 19 73 22 79 20 100 -9 131 -19 21 -33 26 -69 26
l-45 0 -3 144 c-3 138 -4 145 -27 165 -27 24 -9 23 -373 23 l-258 0 0 56 c-1
31 -2 543 -3 1137 l-2 1080 -24 45 c-27 53 -736 765 -791 796 -34 18 -70 19
-1150 22 l-1115 2 -27 -25z"/>
</g>
</svg>
